# xmcd
#
# Track frame offsets: 
#        150
#        19115
#        37902
#        62033
#        81978
#        106951
#        130114
#        149687
#        169293
#        189045
#        210279
#        230498
#        256021
#        279484
#
# Disc length: 4028 seconds
#
# Revision: 0
# Processed by: cddbd v1.5.2PL0 Copyright (c) Steve Scherf et al.
# Submitted via: ExactAudioCopy v1.1
#
DISCID=b90fba0e
DTITLE=nowisee - 掌の戦争
DYEAR=2016
DGENRE=Electronic
TTITLE0=バイブレーション
TTITLE1=ハードボイルド
TTITLE2=bluemoon
TTITLE3=孤犬
TTITLE4=プラタナス
TTITLE5=ナノ
TTITLE6=confusion
TTITLE7=完全世界に宿る死角
TTITLE8=美学
TTITLE9=VIEWER
TTITLE10=オルタナティブ・ラブ
TTITLE11=会いたい
TTITLE12=Lux Fugio
TTITLE13=goodnight
EXTD=
EXTT0=
EXTT1=
EXTT2=
EXTT3=
EXTT4=
EXTT5=
EXTT6=
EXTT7=
EXTT8=
EXTT9=
EXTT10=
EXTT11=
EXTT12=
EXTT13=
PLAYORDER=
